<svg xmlns="http://www.w3.org/2000/svg" width="32" height="32" viewBox="0 0 32 32">
  <defs>
    <radialGradient id="eg" cx="50%" cy="35%" r="55%">
      <stop offset="0%" stop-color="#ffffff"/>
      <stop offset="100%" stop-color="#b0b0b0"/>
    </radialGradient>
  </defs>
  <g transform="translate(16,17)">
    <!-- Simplified spiky body -->
    <path d="
      M0,-13 L1,-9 L4,-14 L5,-9 L8,-12 L7,-7
      L11,-9 L9,-5 L13,-5 L10,-2 L13,1 L9,1
      L12,5 L8,4 L9,8 L6,6 L6,10 L3,7
      L2,11 L0,7 L-2,11 L-3,7 L-6,10 L-6,6
      L-9,8 L-8,4 L-12,5 L-9,1 L-13,1 L-10,-2
      L-13,-5 L-9,-5 L-11,-9 L-7,-7 L-8,-12 L-5,-9
      L-4,-14 L-1,-9 Z"
      fill="#1e1e1e"/>
    <circle cx="0" cy="0" r="8" fill="#1e1e1e"/>
    <!-- Eyes -->
    <circle cx="-3.5" cy="1" r="3.8" fill="url(#eg)"/>
    <circle cx="3.5" cy="1" r="3.8" fill="url(#eg)"/>
    <circle cx="-2.8" cy="2.2" r="1.4" fill="#1e1e1e"/>
    <circle cx="4.2" cy="2.2" r="1.4" fill="#1e1e1e"/>
    <circle cx="-4" cy="-0.5" r="0.8" fill="#fff"/>
    <circle cx="3" cy="-0.5" r="0.8" fill="#fff"/>
  </g>
</svg>
